<?xml version="1.0" encoding="iso-8859-1"?>
<!-- Generator: Adobe Illustrator 22.0.1, SVG Export Plug-In . SVG Version: 6.00 Build 0)  -->
<svg version="1.1" id="Capa_1" xmlns="http://www.w3.org/2000/svg" xmlns:xlink="http://www.w3.org/1999/xlink" x="0px" y="0px"
	 viewBox="-49 141 512 512" style="enable-background:new -49 141 512 512;" xml:space="preserve">
<path style="fill:#FFFFFF;" d="M462.939,471.321c-0.638-11.442-6.282-21.921-15.485-28.749c-14.891-11.05-35.555-9.898-49.128,2.742
	l-82.559,76.887c0.503-16.916-10.616-31.846-27.269-36.071L187.67,460.539c-17.682-4.489-36.196-3.883-53.548,1.751l-69.703,22.63
	v-20.057c0-5.522-4.478-9.999-9.999-9.999h-93.421c-5.522,0-9.999,4.478-9.999,9.999v178.118c0,5.522,4.478,9.999,9.999,9.999
	h93.422c5.522,0,9.999-4.478,9.999-9.999V505.948l75.878-24.635c13.757-4.468,28.437-4.946,42.453-1.39l100.829,25.591
	c7.831,1.988,12.933,9.266,12.13,17.308c-0.83,8.314-7.758,14.585-16.114,14.585h-70.283c-5.522,0-9.999,4.478-9.999,9.999
	c0,5.522,4.478,9.999,9.999,9.999h21.542c0.376,0.043,0.757,0.07,1.145,0.07h49.589c16.54,0,32.314-6.209,44.421-17.481
	l85.947-80.044c6.515-6.068,16.434-6.619,23.584-1.316c4.418,3.277,7.126,8.307,7.432,13.8c0.307,5.493-1.828,10.792-5.854,14.541
	L318.72,597.194c-8.167,7.602-18.811,11.789-29.968,11.789H133.796c-5.522,0-9.999,4.478-9.999,9.999
	c0,5.522,4.478,9.999,9.999,9.999h154.958c16.23,0,31.712-6.091,43.594-17.15l118.397-110.22
	C459.132,493.803,463.577,482.763,462.939,471.321z M44.422,632.982h-73.423V474.863h73.423V632.982z"/>
<path style="fill:#FFFFFF;" d="M93.449,608.983c-2.641,0-5.21,1.069-7.079,2.93c-1.86,1.86-2.93,4.44-2.93,7.069
	s1.069,5.21,2.93,7.068c1.87,1.86,4.439,2.931,7.079,2.931c2.63,0,5.2-1.07,7.069-2.931c1.859-1.859,2.93-4.439,2.93-7.068
	s-1.07-5.21-2.93-7.069C98.648,610.052,96.079,608.983,93.449,608.983z"/>
<path style="fill:#FFFFFF;" d="M7.716,598.654c-2.64,0-5.22,1.06-7.079,2.93c-1.859,1.86-2.92,4.431-2.92,7.069
	c0,2.63,1.061,5.21,2.92,7.069c1.87,1.859,4.44,2.93,7.079,2.93c2.63,0,5.2-1.07,7.06-2.93c1.869-1.86,2.939-4.44,2.939-7.069
	c0-2.64-1.07-5.21-2.939-7.069C12.925,599.724,10.345,598.654,7.716,598.654z"/>
<path style="fill:#FFFFFF;" d="M146.985,261.011c16.541,0,29.998-13.457,29.998-29.998s13.457-29.998,29.998-29.998
	s29.998,13.457,29.998,29.998s-13.457,29.998-29.998,29.998s-29.998,13.457-29.998,29.998v42.997
	c0,16.541,13.457,29.998,29.998,29.998s29.998-13.457,29.998-29.998V315.87c35.69-12.598,59.995-46.446,59.995-84.857
	c0-49.622-40.371-89.993-89.993-89.993s-89.993,40.371-89.993,89.993C116.987,247.554,130.444,261.011,146.985,261.011z
	 M206.98,161.018c38.596,0,69.995,31.4,69.995,69.995c0,31.924-21.587,59.797-52.497,67.782c-4.415,1.14-7.498,5.123-7.498,9.681
	v25.529c0,5.514-4.486,9.999-9.999,9.999s-9.999-4.486-9.999-9.999v-42.997c0-5.514,4.486-9.999,9.999-9.999
	c27.568,0,49.996-22.428,49.996-49.996s-22.428-49.996-49.996-49.996s-49.996,22.428-49.996,49.996c0,5.514-4.486,9.999-9.999,9.999
	s-9.999-4.486-9.999-9.999C136.985,192.418,168.384,161.018,206.98,161.018z"/>
<path style="fill:#FFFFFF;" d="M185.78,395.907c-5.591,5.576-8.797,13.31-8.797,21.218c0,7.908,3.207,15.643,8.787,21.209
	c5.586,5.586,13.316,8.788,21.21,8.788c7.895,0,15.626-3.204,21.209-8.788c5.586-5.586,8.788-13.316,8.788-21.209
	c0-7.893-3.203-15.624-8.778-21.199c-5.576-5.592-13.31-8.798-21.219-8.798C199.072,387.128,191.337,390.335,185.78,395.907z
	 M216.979,417.125c0,2.591-1.096,5.233-2.933,7.068c-1.834,1.835-4.477,2.931-7.066,2.931s-5.234-1.096-7.078-2.94
	c-1.829-1.824-2.921-4.464-2.921-7.059c0-2.635,1.064-5.208,2.939-7.077c1.825-1.829,4.465-2.922,7.06-2.922
	c2.596,0,5.234,1.092,7.067,2.932C215.883,411.892,216.979,414.535,216.979,417.125z"/>
<path style="fill:#FFFFFF;" d="M7.711,578.986c5.522,0,9.999-4.478,9.999-9.999V505.49c0-5.522-4.478-9.999-9.999-9.999
	s-9.999,4.478-9.999,9.999v63.497C-2.289,574.508,2.188,578.986,7.711,578.986z"/>
</svg>
