<?xml version="1.0" encoding="iso-8859-1"?>
<!-- Generator: Adobe Illustrator 22.0.1, SVG Export Plug-In . SVG Version: 6.00 Build 0)  -->
<svg version="1.1" id="Layer_1" xmlns="http://www.w3.org/2000/svg" xmlns:xlink="http://www.w3.org/1999/xlink" x="0px" y="0px"
	 viewBox="-49 141 512 512" style="enable-background:new -49 141 512 512;" xml:space="preserve">
<path style="fill:#FFFFFF;" d="M455.448,506.901c-60.22-60.237-69.282-90.462-69.282-186.701c0-98.97-80.213-179.2-179.166-179.2
	S27.834,221.23,27.834,320.2c0,51.891-1.382,71.262-8.525,95.044c-8.883,29.628-27.119,57.993-60.766,91.657
	c-16.119,16.128-4.702,43.699,18.099,43.699h142.054l-1.289,12.8c0,49.485,40.107,89.6,89.583,89.6
	c49.476,0,89.583-40.115,89.583-89.6l-1.289-12.8h142.063C460.158,550.6,471.576,523.029,455.448,506.901z M207.009,627.4
	c-35.337,0-63.991-28.663-63.991-64l1.289-12.8h125.389L271,563.4C271,598.737,242.345,627.4,207.009,627.4z M-23.349,525
	c76.783-76.8,76.783-128,76.783-204.8c0-84.821,68.753-153.6,153.566-153.6s153.566,68.779,153.574,153.6c0,76.8,0,128,76.783,204.8
	H-23.349z"/>
</svg>
