<?xml version="1.0" encoding="utf-8"?>
<!-- Generator: Adobe Illustrator 22.0.1, SVG Export Plug-In . SVG Version: 6.00 Build 0)  -->
<svg version="1.1" id="Capa_1" xmlns="http://www.w3.org/2000/svg" xmlns:xlink="http://www.w3.org/1999/xlink" x="0px" y="0px"
	 viewBox="0 0 512 512" style="enable-background:new 0 0 512 512;" xml:space="preserve">
<style type="text/css">
	.st0{fill:#FFFFFF;}
</style>
<g>
	<g>
		<path class="st0" d="M511.2,131.8L459.6,14.5c-1.5-3.3-4.8-5.5-8.4-5.5H60.8c-3.6,0-6.9,2.1-8.4,5.5L0.8,131.8
			c-1.2,2.8-1,6.1,0.7,8.7c1.7,2.6,4.6,4.2,7.7,4.2h17.8v349.1c0,5.1,4.1,9.2,9.2,9.2h107.5h224.9h107.5c5.1,0,9.2-4.1,9.2-9.2
			V237.6c0-5.1-4.1-9.2-9.2-9.2s-9.2,4.1-9.2,9.2v247h-89.2v-32.5c0-5.1-4.1-9.2-9.2-9.2h-17.2v-32.5c0-5.1-4.1-9.2-9.2-9.2h-25
			V227.1c0-5.1-4.1-9.2-9.2-9.2H204.1c-5.1,0-9.2,4.1-9.2,9.2v109.3c0,5.1,4.1,9.2,9.2,9.2c5.1,0,9.2-4.1,9.2-9.2V236.3h85.5v165.2
			h-85.5v-34.1c0-5.1-4.1-9.2-9.2-9.2c-5.1,0-9.2,4.1-9.2,9.2v34.1h-25c-5.1,0-9.2,4.1-9.2,9.2v32.5h-17.2c-5.1,0-9.2,4.1-9.2,9.2
			v32.5H45.2v-340H157l-35,35c-3.6,3.6-3.6,9.4,0,12.9c3.6,3.6,9.4,3.6,12.9,0L256,71.6l121.1,121.1c1.8,1.8,4.1,2.7,6.5,2.7
			s4.7-0.9,6.5-2.7c3.6-3.6,3.6-9.4,0-12.9l-35-35h111.8v62.1c0,5.1,4.1,9.2,9.2,9.2c5.1,0,9.2-4.1,9.2-9.2v-62.1h17.8
			c3.1,0,6-1.6,7.7-4.2C512.2,137.9,512.5,134.7,511.2,131.8z M152.7,461.4h130c5.1,0,9.2-4.1,9.2-9.2c0-5.1-4.1-9.2-9.2-9.2H179.1
			v-23.3h153.8v23.3h-19.3c-5.1,0-9.2,4.1-9.2,9.2c0,5.1,4.1,9.2,9.2,9.2h45.6v23.3H152.7V461.4z M336.7,126.4l-74.2-74.2
			c-3.6-3.6-9.4-3.6-12.9,0l-74.2,74.2H23.2l43.6-99h378.5l43.6,99H336.7z"/>
	</g>
</g>
<g>
	<g>
		<path class="st0" d="M431.4,245.8h-77.8c-5.1,0-9.2,4.1-9.2,9.2v107.5c0,5.1,4.1,9.2,9.2,9.2h77.8c5.1,0,9.2-4.1,9.2-9.2V254.9
			C440.6,249.9,436.5,245.8,431.4,245.8z M422.3,353.2h-59.5v-46.5h37.8c5.1,0,9.2-4.1,9.2-9.2s-4.1-9.2-9.2-9.2h-37.8v-24.3h59.5
			V353.2z"/>
	</g>
</g>
<g>
	<g>
		<path class="st0" d="M158.4,245.8H80.6c-5.1,0-9.2,4.1-9.2,9.2v107.5c0,5.1,4.1,9.2,9.2,9.2h77.8c5.1,0,9.2-4.1,9.2-9.2V254.9
			C167.6,249.9,163.5,245.8,158.4,245.8z M149.2,353.2H89.7v-46.5h59.5V353.2z M149.2,288.4H89.7v-24.3h59.5V288.4z"/>
	</g>
</g>
<g>
	<g>
		<circle class="st0" cx="229.6" cy="323.5" r="9.2"/>
	</g>
</g>
</svg>
