<?xml version="1.0" encoding="utf-8"?>
<!-- Generator: Adobe Illustrator 22.0.1, SVG Export Plug-In . SVG Version: 6.00 Build 0)  -->
<svg version="1.1" id="Layer_1" xmlns="http://www.w3.org/2000/svg" xmlns:xlink="http://www.w3.org/1999/xlink" x="0px" y="0px"
	 viewBox="0 0 841.9 595.3" style="enable-background:new 0 0 841.9 595.3;" xml:space="preserve">
<style type="text/css">
	.st0{fill:#FFFFFF;}
</style>
<path class="st0" d="M611.4,279.6l-183-163.7c-0.3-0.3-0.6-0.6-1-0.8c-4-3.8-10.4-4-14.6-0.2l-183,163.7c-4.5,4-4.8,10.8-0.9,15.3
	c2.2,2.4,5.1,3.6,8.1,3.6c2.6,0,5.1-0.9,7.2-2.7l33-29.5v190.9c0,15,12.2,27.2,27.2,27.2h57.8c14.1,0,25.5-11.4,25.5-25.5v-97
	c0-2.2,1.8-3.9,3.9-3.9h58.3c2.2,0,3.9,1.8,3.9,3.9v97c0,14.1,11.4,25.5,25.5,25.5h57.8c15.2,0,27.2-15,27.2-34.1v-183l33,29.5
	c2.1,1.8,4.6,2.7,7.2,2.7c3,0,5.9-1.2,8.1-3.6C616.2,290.4,615.8,283.6,611.4,279.6L611.4,279.6z M542.4,333V449
	c0,7.8-3.8,12.5-5.6,12.5H479c-2.2,0-3.9-1.8-3.9-3.9v-96.9c0-14.1-11.4-25.5-25.5-25.5h-58.3c-14.1,0-25.5,11.4-25.5,25.5v97
	c0,2.2-1.8,3.9-3.9,3.9h-57.8c-3,0-5.6-2.5-5.6-5.6V245.8l121.4-108.5l122.5,109.5V333z M542.4,333"/>
</svg>
