<?xml version="1.0" encoding="iso-8859-1"?>
<!-- Generator: Adobe Illustrator 22.0.1, SVG Export Plug-In . SVG Version: 6.00 Build 0)  -->
<svg version="1.1" id="Capa_1" xmlns="http://www.w3.org/2000/svg" xmlns:xlink="http://www.w3.org/1999/xlink" x="0px" y="0px"
	 viewBox="-49 141 512 512" style="enable-background:new -49 141 512 512;" xml:space="preserve">
<path style="fill:#FFFFFF;" d="M367,157H79c-19.568,0-35.832,14.144-39.264,32.736C21.144,193.168,7,209.432,7,229v368
	c0,22.056,17.944,40,40,40h288c19.568,0,35.832-14.144,39.264-32.736C392.856,600.832,407,584.568,407,565V197
	C407,174.944,389.056,157,367,157z M359,597c0,13.232-10.768,24-24,24H47c-13.232,0-24-10.768-24-24V229c0-13.232,10.768-24,24-24
	h240v64c0,4.424,3.584,8,8,8h64V597z M303,261v-44.688L347.688,261H303z M391,565c0,10.416-6.712,19.216-16,22.528V269
	c0-2.216-0.896-4.216-2.352-5.664l-71.984-71.984C299.216,189.896,297.216,189,295,189H56.472c3.312-9.288,12.112-16,22.528-16h288
	c13.232,0,24,10.768,24,24V565z"/>
<path style="fill:#FFFFFF;" d="M191,277c-61.76,0-112,50.24-112,112s50.24,112,112,112s112-50.24,112-112S252.76,277,191,277z
	 M191,485c-52.936,0-96-43.064-96-96c0-52.936,43.064-96,96-96c52.936,0,96,43.064,96,96C287,441.936,243.936,485,191,485z"/>
<rect x="133.318" y="380.989" transform="matrix(0.5547 -0.8321 0.8321 0.5547 -238.6043 332.158)" style="fill:#FFFFFF;" width="115.381" height="16.001"/>
<path style="fill:#FFFFFF;" d="M231,389c-13.232,0-24,10.768-24,24s10.768,24,24,24s24-10.768,24-24S244.232,389,231,389z M231,421
	c-4.408,0-8-3.584-8-8c0-4.416,3.592-8,8-8c4.408,0,8,3.584,8,8C239,417.416,235.408,421,231,421z"/>
<path style="fill:#FFFFFF;" d="M175,365c0-13.232-10.768-24-24-24s-24,10.768-24,24s10.768,24,24,24S175,378.232,175,365z M151,373
	c-4.408,0-8-3.584-8-8s3.592-8,8-8s8,3.584,8,8S155.408,373,151,373z"/>
<path style="fill:#FFFFFF;" d="M191,553.688l-18.344-18.344l-11.312,11.312l24,24c1.56,1.56,3.608,2.344,5.656,2.344
	c2.048,0,4.096-0.784,5.656-2.344l48-48l-11.312-11.312L191,553.688z"/>
</svg>
