<?xml version="1.0" encoding="utf-8"?>
<!-- Generator: Adobe Illustrator 22.0.1, SVG Export Plug-In . SVG Version: 6.00 Build 0)  -->
<svg version="1.1" id="Capa_1" xmlns="http://www.w3.org/2000/svg" xmlns:xlink="http://www.w3.org/1999/xlink" x="0px" y="0px"
	 viewBox="0 0 512 512" style="enable-background:new 0 0 512 512;" xml:space="preserve">
<style type="text/css">
	.st0{fill:#FFFFFF;}
</style>
<g>
	<g>
		<path class="st0" d="M181.3,336.9V181.3H160v160c0,2.8,1.2,5.6,3.2,7.5L276.3,462l15.1-15.1L181.3,336.9z"/>
	</g>
</g>
<g>
	<g>
		<rect x="170.7" y="330.7" class="st0" width="160" height="21.3"/>
	</g>
</g>
<g>
	<g>
		<path class="st0" d="M458.7,0H53.3C23.9,0,0,23.9,0,53.3v160h21.3v-160c0-17.7,14.3-32,32-32h405.3c17.7,0,32,14.3,32,32v405.3
			c0,17.7-14.3,32-32,32H288V512h170.7c29.4,0,53.3-23.9,53.3-53.3V53.3C512,23.9,488.1,0,458.7,0z"/>
	</g>
</g>
<g>
	<g>
		<rect x="42.7" y="85.3" class="st0" width="426.7" height="21.3"/>
	</g>
</g>
<g>
	<g>
		<rect x="53.3" y="42.7" class="st0" width="21.3" height="21.3"/>
	</g>
</g>
<g>
	<g>
		<rect x="96" y="42.7" class="st0" width="21.3" height="21.3"/>
	</g>
</g>
<g>
	<g>
		<rect x="437.3" y="42.7" class="st0" width="21.3" height="21.3"/>
	</g>
</g>
<g>
	<g>
		<path class="st0" d="M170.7,170.7C76.4,170.7,0,247.1,0,341.3S76.4,512,170.7,512c94.2-0.1,170.6-76.5,170.7-170.7
			C341.3,247.1,264.9,170.7,170.7,170.7z M170.7,490.7c-82.5,0-149.3-66.9-149.3-149.3S88.2,192,170.7,192
			c82.4,0.1,149.2,66.9,149.3,149.3C320,423.8,253.1,490.7,170.7,490.7z"/>
	</g>
</g>
<g>
	<g>
		<path class="st0" d="M448,160H298.7v21.3h138.7v21.3H330.7V224H448c5.9,0,10.7-4.8,10.7-10.7v-42.7C458.7,164.8,453.9,160,448,160
			z"/>
	</g>
</g>
<g>
	<g>
		<rect x="437.3" y="256" class="st0" width="21.3" height="21.3"/>
	</g>
</g>
<g>
	<g>
		<rect x="394.7" y="256" class="st0" width="21.3" height="21.3"/>
	</g>
</g>
<g>
	<g>
		<rect x="362.7" y="298.7" class="st0" width="96" height="21.3"/>
	</g>
</g>
<g>
	<g>
		<rect x="362.7" y="341.3" class="st0" width="96" height="21.3"/>
	</g>
</g>
<g>
	<g>
		<rect x="362.7" y="384" class="st0" width="96" height="21.3"/>
	</g>
</g>
</svg>
