<?xml version="1.0" encoding="iso-8859-1"?>
<!-- Generator: Adobe Illustrator 22.0.1, SVG Export Plug-In . SVG Version: 6.00 Build 0)  -->
<svg version="1.1" id="Capa_1" xmlns="http://www.w3.org/2000/svg" xmlns:xlink="http://www.w3.org/1999/xlink" x="0px" y="0px"
	 viewBox="-49 141 512 512" style="enable-background:new -49 141 512 512;" xml:space="preserve">
<path style="fill:#FFFFFF;" d="M394.733,158.067H172.867c-28.277,0-51.2,22.923-51.2,51.2v102.4c0,9.426,7.641,17.067,17.067,17.067
	c9.426,0,17.067-7.641,17.067-17.067v-102.4c0-9.426,7.641-17.067,17.067-17.067h221.867c9.426,0,17.067,7.641,17.067,17.067
	v375.467c0,9.426-7.641,17.067-17.067,17.067H172.867c-9.426,0-17.067-7.641-17.067-17.067v-102.4
	c0-9.426-7.641-17.067-17.067-17.067c-9.426,0-17.067,7.641-17.067,17.067v102.4c0,28.277,22.923,51.2,51.2,51.2h221.867
	c28.277,0,51.2-22.923,51.2-51.2V209.267C445.933,180.99,423.01,158.067,394.733,158.067z"/>
<path style="fill:#FFFFFF;" d="M-30.619,390.481c-1.726,4.175-1.726,8.864,0,13.039c0.852,2.083,2.111,3.974,3.703,5.564
	l85.333,85.333c6.548,6.78,17.352,6.968,24.132,0.42c6.78-6.548,6.968-17.352,0.42-24.132c-0.137-0.142-0.277-0.282-0.42-0.42
	l-56.218-56.218H309.4c9.426,0,17.067-7.641,17.067-17.067c0-9.426-7.641-17.067-17.067-17.067H26.332l56.201-56.201
	c6.548-6.78,6.36-17.584-0.42-24.132c-6.614-6.387-17.099-6.387-23.712,0l-85.333,85.333
	C-28.517,386.52-29.771,388.405-30.619,390.481z"/>
</svg>
