<?xml version="1.0" encoding="utf-8"?>
<!-- Generator: Adobe Illustrator 22.0.1, SVG Export Plug-In . SVG Version: 6.00 Build 0)  -->
<svg version="1.1" id="Layer_1" xmlns="http://www.w3.org/2000/svg" xmlns:xlink="http://www.w3.org/1999/xlink" x="0px" y="0px"
	 viewBox="0 0 841.9 595.3" style="enable-background:new 0 0 841.9 595.3;" xml:space="preserve">
<style type="text/css">
	.st0{fill:#FFFFFF;}
</style>
<path class="st0" d="M531.8,249.7h6.5c10.6,0,19.2,8.6,19.2,19.2V299c0,1.9-1,3.7-2.6,4.7c-2.2,1.4-3.5,3.9-3.5,6.6v29
	c0,3.6,2,6.7,5.2,8.3c3.8,1.8,23.3,11.7,41.4,26.6c1.5,1.3,2.4,3.1,2.4,5.2v20.6c0,4.4,3.5,7.9,7.9,7.9c4.4,0,7.9-3.5,7.9-7.9v-20.6
	c0-6.8-3-13.1-8.2-17.4c-15.9-13.1-33-22.6-40.8-26.6V314c3.8-4,6.1-9.3,6.1-15v-30.2c0-19.4-15.8-35-35-35h-6.5
	c-19.4,0-35,15.8-35,35V299c0,5.7,2.2,11,6.1,15v10.3c0,4.4,3.5,7.9,7.9,7.9c4.4,0,7.9-3.5,7.9-7.9v-13.9c0-2.6-1.4-5.1-3.5-6.6
	c-1.6-1-2.6-2.8-2.6-4.7V269C512.6,258.3,521.2,249.7,531.8,249.7L531.8,249.7z M531.8,249.7"/>
<path class="st0" d="M232.2,362.1c-5.2,4.3-8.2,10.6-8.2,17.4v20.6c0,4.4,3.5,7.9,7.9,7.9c4.4,0,7.9-3.5,7.9-7.9v-20.6
	c0-2,0.9-3.9,2.4-5.2c18.1-14.8,37.6-24.7,41.4-26.6c3.2-1.6,5.2-4.7,5.2-8.3v-29c0-2.6-1.4-5.1-3.5-6.6c-1.6-1-2.6-2.8-2.6-4.7V269
	c0-10.6,8.6-19.2,19.2-19.2h6.5c10.6,0,19.2,8.6,19.2,19.2v30.2c0,1.9-1,3.7-2.6,4.7c-2.2,1.4-3.5,3.9-3.5,6.6V325
	c0,4.4,3.5,7.9,7.9,7.9c4.4,0,7.9-3.5,7.9-7.9v-10.9c3.8-4,6.1-9.3,6.1-15V269c0-19.4-15.8-35-35-35h-6.5c-19.4,0-35,15.8-35,35
	v30.2c0,5.7,2.2,11,6.1,15v21.4C265.2,339.5,248.2,349,232.2,362.1L232.2,362.1z M232.2,362.1"/>
<path class="st0" d="M515.4,408.1c4.4,0,7.9-3.5,7.9-7.9v-26.7c0-8.1-3.5-15.6-9.8-20.7c-21.4-17.6-44.2-30.1-53.6-34.9v-30.1
	c5-4.8,7.8-11.4,7.8-18.4v-39c0-23.8-19.4-43-43-43h-8.4c-23.8,0-43,19.4-43,43v39c0,7,2.9,13.6,7.8,18.4v30.1
	c-9.4,4.8-32.2,17.3-53.6,34.9c-6.2,5.1-9.8,12.6-9.8,20.7v26.7c0,4.4,3.5,7.9,7.9,7.9c4.4,0,7.9-3.5,7.9-7.9v-26.7
	c0-3.3,1.4-6.4,4-8.5c23.6-19.4,49.1-32.2,54-34.6c3.4-1.6,5.4-5,5.4-8.6v-37.6c0-2.6-1.4-5.1-3.5-6.6c-2.7-1.8-4.3-4.8-4.3-8.1v-39
	c0-15,12.2-27.2,27.2-27.2h8.4c15,0,27.2,12.2,27.2,27.2v39c0,3.2-1.6,6.2-4.3,8.1c-2.2,1.4-3.5,3.9-3.5,6.6v37.6
	c0,3.7,2.1,7,5.4,8.7c4.9,2.4,30.4,15.3,54,34.6c2.6,2.1,4,5.2,4,8.5v26.7C507.4,404.6,511,408.1,515.4,408.1L515.4,408.1z
	 M515.4,408.1"/>
</svg>
