<?xml version="1.0" encoding="iso-8859-1"?>
<!-- Generator: Adobe Illustrator 22.0.1, SVG Export Plug-In . SVG Version: 6.00 Build 0)  -->
<svg version="1.1" id="Layer_1" xmlns="http://www.w3.org/2000/svg" xmlns:xlink="http://www.w3.org/1999/xlink" x="0px" y="0px"
	 viewBox="0 0 841.89 595.276" style="enable-background:new 0 0 841.89 595.276;" xml:space="preserve">
<path style="fill:#FFFFFF;" d="M483.602,266.178c-2.204-33.403-30.079-59.903-64.028-59.903c-33.961,0-61.84,26.512-64.031,59.926
	C325.184,270.021,302,295.885,302,326.92c0,33.789,27.488,61.277,61.277,61.277h93.184c2.652,0,4.801-2.152,4.801-4.801
	c0-2.652-2.149-4.8-4.801-4.8h-93.184c-28.496,0-51.675-23.184-51.675-51.676c0-27.418,21.464-50.055,48.867-51.528
	c2.547-0.136,4.543-2.242,4.543-4.793c0-0.097-0.004-0.191-0.008-0.285c0.07-30.027,24.523-54.437,54.57-54.437
	c30.051,0,54.504,24.414,54.567,54.449c-0.004,0.094-0.008,0.191-0.008,0.262c0,2.558,2.004,4.664,4.558,4.793
	c27.497,1.394,49.036,24.031,49.036,51.539c0,15.621-6.961,30.242-19.094,40.109c-2.055,1.672-2.367,4.695-0.695,6.754
	c1.675,2.055,4.699,2.367,6.753,0.691c14.383-11.699,22.633-29.031,22.633-47.554C537.324,295.787,514.062,269.912,483.602,266.178
	L483.602,266.178z M483.602,266.178"/>
<path style="fill:#FFFFFF;" d="M414.773,292.435v61.207c0,2.653,2.149,4.801,4.801,4.801c2.649,0,4.797-2.148,4.797-4.801v-61.207
	c0-2.652-2.148-4.8-4.797-4.8C416.922,287.635,414.773,289.783,414.773,292.435L414.773,292.435z M414.773,292.435"/>
<path style="fill:#FFFFFF;" d="M447.027,301.338c1.227,0,2.457-0.469,3.395-1.407c1.875-1.875,1.875-4.914,0-6.789l-27.453-27.453
	c-1.875-1.875-4.914-1.875-6.789,0l-27.453,27.453c-1.875,1.875-1.875,4.914,0,6.789s4.914,1.875,6.785,0l24.062-24.058
	l24.059,24.058C444.57,300.869,445.797,301.338,447.027,301.338L447.027,301.338z M447.027,301.338"/>
</svg>
