<?xml version="1.0" encoding="utf-8"?>
<!-- Generator: Adobe Illustrator 22.0.1, SVG Export Plug-In . SVG Version: 6.00 Build 0)  -->
<svg version="1.1" id="Capa_1" xmlns="http://www.w3.org/2000/svg" xmlns:xlink="http://www.w3.org/1999/xlink" x="0px" y="0px"
	 viewBox="0 0 512 512" style="enable-background:new 0 0 512 512;" xml:space="preserve">
<style type="text/css">
	.st0{fill:#FFFFFF;}
</style>
<path class="st0" d="M0,387.6l26.6,97.8l97.8,26.6L252,384.4l91,91c16.5,16.5,38.4,25.6,61.7,25.6c23.3,0,45.2-9.1,61.7-25.6
	c34-34,34-89.4,0-123.4l-58-58c22.2-7.3,42.5-19.6,59.5-36.6c39.4-39.4,53.8-97,37.6-150.4l-8.6-28.5L413,162.3l-49.9-13.4L349.7,99
	l83.9-83.9l-28.5-8.6c-14.2-4.3-29-6.5-43.9-6.5C321,0,283.1,15.7,254.7,44.1c-34.7,34.7-50.1,83-42.2,130.9l-10.6,10.6L93.5,77.4
	l-21.7-29L39.2,27.4L29,37.5l-0.5,0.5L18.3,48.2l20.9,32.7l29,21.7l108.4,108.4L0,387.6z M309.9,88.4l24,89.7l89.7,24l52.7-52.7
	c0.4,30.6-11.4,60.4-33.7,82.7c-21.7,21.7-50.6,33.7-81.3,33.7c-8.8,0-17.6-1-26.2-3l-9.6-2.2L113.8,472.1l-58.2-15.8l-15.8-58.2
	l211.6-211.6l-2.2-9.6c-9.1-39.1,2.4-79.3,30.7-107.5c22-22,51.5-34.1,82.7-33.7L309.9,88.4z M441.1,377.2c20.1,20.1,20.1,52.8,0,73
	c-9.7,9.7-22.7,15.1-36.5,15.1s-26.7-5.4-36.5-15.1l-91-91l59.7-59.7c8,1.3,16.2,2,24.4,2c1.3,0,2.6-0.1,4-0.1L441.1,377.2z
	 M109.3,399.3c7.2,7.2,7.2,19,0,26.2c-3.6,3.6-8.4,5.4-13.1,5.4c-4.7,0-9.5-1.8-13.1-5.4c-7.2-7.2-7.2-19,0-26.2
	c3.6-3.6,8.4-5.4,13.1-5.4C101,393.8,105.7,395.6,109.3,399.3z"/>
</svg>
